{
	"asset":{
		"generator":"Khronos glTF Blender I/O v3.6.27",
		"version":"2.0"
	},
	"scene":0,
	"scenes":[
		{
			"name":"Scene",
			"nodes":[
				0
			]
		}
	],
	"nodes":[
		{
			"mesh":0,
			"name":"Text.001",
			"rotation":[
				0.7071068286895752,
				0,
				0,
				0.7071068286895752
			]
		}
	],
	"materials":[
		{
			"doubleSided":true,
			"name":"Orange.001",
			"pbrMetallicRoughness":{
				"baseColorFactor":[
					0.8000000715255737,
					0.19368179142475128,
					0.020786771550774574,
					1
				],
				"metallicFactor":0,
				"roughnessFactor":0.5
			}
		}
	],
	"meshes":[
		{
			"name":"Text.001",
			"primitives":[
				{
					"attributes":{
						"POSITION":0,
						"NORMAL":1,
						"TEXCOORD_0":2
					},
					"indices":3,
					"material":0
				}
			]
		}
	],
	"accessors":[
		{
			"bufferView":0,
			"componentType":5126,
			"count":2850,
			"max":[
				1.2240372896194458,
				0.10999999940395355,
				0.02901395410299301
			],
			"min":[
				0.04400000721216202,
				-0.10999999940395355,
				-0.7110073566436768
			],
			"type":"VEC3"
		},
		{
			"bufferView":1,
			"componentType":5126,
			"count":2850,
			"type":"VEC3"
		},
		{
			"bufferView":2,
			"componentType":5126,
			"count":2850,
			"type":"VEC2"
		},
		{
			"bufferView":3,
			"componentType":5123,
			"count":14460,
			"type":"SCALAR"
		}
	],
	"bufferViews":[
		{
			"buffer":0,
			"byteLength":34200,
			"byteOffset":0,
			"target":34962
		},
		{
			"buffer":0,
			"byteLength":34200,
			"byteOffset":34200,
			"target":34962
		},
		{
			"buffer":0,
			"byteLength":22800,
			"byteOffset":68400,
			"target":34962
		},
		{
			"buffer":0,
			"byteLength":28920,
			"byteOffset":91200,
			"target":34963
		}
	],
	"buffers":[
		{
			"byteLength":120120,
			"uri":"data:application/octet-stream;base64,"
		}
	]
}
