<?xml version="1.0" encoding="UTF-8" standalone="no"?><!DOCTYPE svg PUBLIC "-//W3C//DTD SVG 1.1//EN" "http://www.w3.org/Graphics/SVG/1.1/DTD/svg11.dtd"><svg width="100%" height="100%" viewBox="0 0 336 85" version="1.1" xmlns="http://www.w3.org/2000/svg" xmlns:xlink="http://www.w3.org/1999/xlink" xml:space="preserve" xmlns:serif="http://www.serif.com/" style="fill-rule:evenodd;clip-rule:evenodd;stroke-linejoin:round;stroke-miterlimit:2;"><g id="final-spacing" serif:id="final spacing"><path d="M42.734,70.047l13.863,-0l-0,-2.06l-25.033,-54.106l-6.1,0l-24.954,54.106l0,2.06l13.864,-0l3.248,-6.971l21.864,-0l3.248,6.971Zm-7.843,-19.092l-12.675,0l6.259,-14.576l6.416,14.576Z" style="fill-rule:nonzero;"/><path d="M101.997,50.401c14.022,-9.506 10.061,-35.728 -11.724,-35.807l-24.32,0l-0,55.453l14.18,-0l-0,-16.319l7.367,-0l9.506,16.319l15.844,-0l-0,-2.06l-10.853,-17.586Zm-11.724,-9.427l-10.14,-0l-0,-13.705c3.327,0 6.812,-0.079 10.14,0c8.08,0.079 7.684,13.705 -0,13.705Z" style="fill-rule:nonzero;"/><path d="M133.13,27.269l-0,42.778l14.021,-0l0,-42.778l13.547,0l-0,-12.675l-41.194,0l0,12.675l13.626,0Z" style="fill-rule:nonzero;"/><path d="M196.187,75.915l-8.571,0l-0,-67.176l8.571,-0l-0,-8.725l-17.683,-0l0,84.704l17.683,-0l-0,-8.803Z" style="fill-rule:nonzero;"/><path d="M228.856,52.619l10.536,17.428l14.893,-0l0,-2.139l-17.982,-27.251l16.002,-23.924l-0,-2.139l-14.26,0l-9.268,14.418l-0.396,-0l-9.031,-14.418l-14.497,0l-0,2.139l16.002,23.924l-17.903,27.251l-0,2.139l14.814,-0l10.615,-17.428l0.475,-0Z" style="fill-rule:nonzero;"/><path d="M299.677,50.401c14.022,-9.506 10.061,-35.728 -11.724,-35.807l-24.32,0l-0,55.453l14.18,-0l-0,-16.319l7.367,-0l9.506,16.319l15.844,-0l0,-2.06l-10.853,-17.586Zm-11.724,-9.427l-10.14,-0l-0,-13.705c3.327,0 6.813,-0.079 10.14,0c8.08,0.079 7.684,13.705 -0,13.705Z" style="fill-rule:nonzero;"/><path d="M335.416,0.014l-17.759,-0l0,8.725l8.648,-0l0,67.176l-8.648,0l0,8.803l17.759,-0l0,-84.704Z" style="fill-rule:nonzero;"/></g></svg>